<svg xmlns="http://www.w3.org/2000/svg" xmlns:xlink="http://www.w3.org/1999/xlink" width="500" zoomAndPan="magnify" viewBox="0 0 375 149.999998" height="200" preserveAspectRatio="xMidYMid meet" version="1.0"><defs><g/><clipPath id="68634872b4"><path d="M 7.546875 58.582031 L 66.910156 58.582031 L 66.910156 95.097656 L 7.546875 95.097656 Z M 7.546875 58.582031 " clip-rule="nonzero"/></clipPath><clipPath id="1e7900e946"><path d="M 63.695312 49.875 L 73.0625 83.160156 L 12.824219 100.113281 L 3.457031 66.828125 Z M 63.695312 49.875 " clip-rule="nonzero"/></clipPath><clipPath id="157d1805bd"><path d="M 63.695312 49.875 L 73.0625 83.160156 L 12.824219 100.113281 L 3.457031 66.828125 Z M 63.695312 49.875 " clip-rule="nonzero"/></clipPath><clipPath id="1d8b4f4fdd"><path d="M 63.695312 49.875 L 73.070312 83.195312 L 12.804688 100.15625 L 3.429688 66.835938 Z M 63.695312 49.875 " clip-rule="nonzero"/></clipPath><clipPath id="79e3c76413"><path d="M 63.699219 49.886719 L 73.0625 83.160156 L 12.800781 100.117188 L 3.4375 66.847656 Z M 63.699219 49.886719 " clip-rule="nonzero"/></clipPath></defs><g fill="#ffffff" fill-opacity="1"><g transform="translate(71.220527, 88.310739)"><g><path d="M 21.671875 -27.03125 L 21.671875 -22.53125 L 13.859375 -22.53125 L 13.859375 0 L 8.546875 0 L 8.546875 -22.53125 L 0.734375 -22.53125 L 0.734375 -27.03125 Z M 21.671875 -27.03125 "/></g></g></g><g fill="#ffffff" fill-opacity="1"><g transform="translate(93.621475, 88.310739)"><g><path d="M 2.9375 0 L 2.9375 -28.578125 L 8.0625 -28.578125 L 8.0625 -17.734375 L 8.453125 -17.65625 C 9.128906 -18.65625 9.957031 -19.425781 10.9375 -19.96875 C 11.925781 -20.507812 13.117188 -20.78125 14.515625 -20.78125 C 19.015625 -20.78125 21.265625 -18.226562 21.265625 -13.125 L 21.265625 0 L 16.140625 0 L 16.140625 -12.484375 C 16.140625 -13.867188 15.859375 -14.875 15.296875 -15.5 C 14.742188 -16.132812 13.882812 -16.453125 12.71875 -16.453125 C 11.289062 -16.453125 10.15625 -15.972656 9.3125 -15.015625 C 8.476562 -14.066406 8.0625 -12.582031 8.0625 -10.5625 L 8.0625 0 Z M 2.9375 0 "/></g></g></g><g fill="#ffffff" fill-opacity="1"><g transform="translate(117.501033, 88.310739)"><g><path d="M 20.15625 -9.046875 L 7.046875 -9.046875 C 7.191406 -7.265625 7.695312 -5.96875 8.5625 -5.15625 C 9.425781 -4.351562 10.601562 -3.953125 12.09375 -3.953125 C 13.257812 -3.953125 14.207031 -4.171875 14.9375 -4.609375 C 15.664062 -5.046875 16.25 -5.707031 16.6875 -6.59375 L 17.078125 -6.59375 L 20.484375 -4.421875 C 19.816406 -2.992188 18.8125 -1.832031 17.46875 -0.9375 C 16.125 -0.0507812 14.332031 0.390625 12.09375 0.390625 C 9.976562 0.390625 8.15625 -0.0078125 6.625 -0.8125 C 5.09375 -1.613281 3.910156 -2.804688 3.078125 -4.390625 C 2.242188 -5.972656 1.828125 -7.90625 1.828125 -10.1875 C 1.828125 -12.5 2.265625 -14.453125 3.140625 -16.046875 C 4.015625 -17.640625 5.195312 -18.828125 6.6875 -19.609375 C 8.175781 -20.390625 9.851562 -20.78125 11.71875 -20.78125 C 14.601562 -20.78125 16.8125 -20.015625 18.34375 -18.484375 C 19.882812 -16.953125 20.65625 -14.707031 20.65625 -11.75 C 20.65625 -10.6875 20.613281 -9.859375 20.53125 -9.265625 Z M 15.75 -12.34375 C 15.695312 -13.894531 15.332031 -15.023438 14.65625 -15.734375 C 13.988281 -16.441406 13.007812 -16.796875 11.71875 -16.796875 C 9.132812 -16.796875 7.613281 -15.3125 7.15625 -12.34375 Z M 15.75 -12.34375 "/></g></g></g><g fill="#ffffff" fill-opacity="1"><g transform="translate(139.66172, 88.310739)"><g/></g></g><g fill="#ffffff" fill-opacity="1"><g transform="translate(148.588844, 88.310739)"><g><path d="M 11.984375 0.390625 C 10.109375 0.390625 8.4375 0.160156 6.96875 -0.296875 C 5.507812 -0.765625 4.289062 -1.375 3.3125 -2.125 C 2.34375 -2.875 1.601562 -3.703125 1.09375 -4.609375 L 4.03125 -8.1875 L 4.484375 -8.1875 C 5.304688 -6.976562 6.34375 -6.015625 7.59375 -5.296875 C 8.84375 -4.585938 10.304688 -4.234375 11.984375 -4.234375 C 13.410156 -4.234375 14.484375 -4.535156 15.203125 -5.140625 C 15.929688 -5.742188 16.296875 -6.578125 16.296875 -7.640625 C 16.296875 -8.273438 16.179688 -8.804688 15.953125 -9.234375 C 15.722656 -9.671875 15.332031 -10.039062 14.78125 -10.34375 C 14.238281 -10.65625 13.507812 -10.921875 12.59375 -11.140625 L 9.109375 -11.9375 C 6.679688 -12.5 4.875 -13.421875 3.6875 -14.703125 C 2.5 -15.992188 1.90625 -17.664062 1.90625 -19.71875 C 1.90625 -21.25 2.285156 -22.59375 3.046875 -23.75 C 3.816406 -24.914062 4.929688 -25.816406 6.390625 -26.453125 C 7.847656 -27.097656 9.59375 -27.421875 11.625 -27.421875 C 13.707031 -27.421875 15.488281 -27.144531 16.96875 -26.59375 C 18.457031 -26.039062 19.710938 -25.195312 20.734375 -24.0625 L 18.09375 -20.453125 L 17.640625 -20.453125 C 16.867188 -21.242188 15.988281 -21.835938 15 -22.234375 C 14.019531 -22.640625 12.894531 -22.84375 11.625 -22.84375 C 10.15625 -22.84375 9.039062 -22.582031 8.28125 -22.0625 C 7.519531 -21.550781 7.140625 -20.835938 7.140625 -19.921875 C 7.140625 -19.078125 7.40625 -18.398438 7.9375 -17.890625 C 8.476562 -17.390625 9.40625 -17 10.71875 -16.71875 L 14.265625 -15.96875 C 16.890625 -15.414062 18.796875 -14.476562 19.984375 -13.15625 C 21.171875 -11.832031 21.765625 -10.101562 21.765625 -7.96875 C 21.765625 -6.28125 21.398438 -4.8125 20.671875 -3.5625 C 19.941406 -2.3125 18.84375 -1.335938 17.375 -0.640625 C 15.90625 0.046875 14.109375 0.390625 11.984375 0.390625 Z M 11.984375 0.390625 "/></g></g></g><g fill="#ffffff" fill-opacity="1"><g transform="translate(171.803028, 88.310739)"><g><path d="M 20.15625 -9.046875 L 7.046875 -9.046875 C 7.191406 -7.265625 7.695312 -5.96875 8.5625 -5.15625 C 9.425781 -4.351562 10.601562 -3.953125 12.09375 -3.953125 C 13.257812 -3.953125 14.207031 -4.171875 14.9375 -4.609375 C 15.664062 -5.046875 16.25 -5.707031 16.6875 -6.59375 L 17.078125 -6.59375 L 20.484375 -4.421875 C 19.816406 -2.992188 18.8125 -1.832031 17.46875 -0.9375 C 16.125 -0.0507812 14.332031 0.390625 12.09375 0.390625 C 9.976562 0.390625 8.15625 -0.0078125 6.625 -0.8125 C 5.09375 -1.613281 3.910156 -2.804688 3.078125 -4.390625 C 2.242188 -5.972656 1.828125 -7.90625 1.828125 -10.1875 C 1.828125 -12.5 2.265625 -14.453125 3.140625 -16.046875 C 4.015625 -17.640625 5.195312 -18.828125 6.6875 -19.609375 C 8.175781 -20.390625 9.851562 -20.78125 11.71875 -20.78125 C 14.601562 -20.78125 16.8125 -20.015625 18.34375 -18.484375 C 19.882812 -16.953125 20.65625 -14.707031 20.65625 -11.75 C 20.65625 -10.6875 20.613281 -9.859375 20.53125 -9.265625 Z M 15.75 -12.34375 C 15.695312 -13.894531 15.332031 -15.023438 14.65625 -15.734375 C 13.988281 -16.441406 13.007812 -16.796875 11.71875 -16.796875 C 9.132812 -16.796875 7.613281 -15.3125 7.15625 -12.34375 Z M 15.75 -12.34375 "/></g></g></g><g fill="#ffffff" fill-opacity="1"><g transform="translate(193.963715, 88.310739)"><g><path d="M 2.9375 0 L 2.9375 -20.390625 L 7.90625 -20.390625 L 7.90625 -17.359375 L 8.296875 -17.28125 C 8.796875 -18.414062 9.441406 -19.25 10.234375 -19.78125 C 11.035156 -20.3125 12.007812 -20.578125 13.15625 -20.578125 C 14.320312 -20.578125 15.207031 -20.378906 15.8125 -19.984375 L 14.9375 -15.5625 L 14.546875 -15.484375 C 14.210938 -15.617188 13.890625 -15.71875 13.578125 -15.78125 C 13.273438 -15.84375 12.898438 -15.875 12.453125 -15.875 C 11.023438 -15.875 9.9375 -15.367188 9.1875 -14.359375 C 8.4375 -13.359375 8.0625 -11.75 8.0625 -9.53125 L 8.0625 0 Z M 2.9375 0 "/></g></g></g><g fill="#ffffff" fill-opacity="1"><g transform="translate(209.951203, 88.310739)"><g><path d="M 14.03125 0 L 7.9375 0 L 0.390625 -20.390625 L 5.75 -20.390625 L 10.8125 -5.859375 L 11.234375 -5.859375 L 16.328125 -20.390625 L 21.5625 -20.390625 Z M 14.03125 0 "/></g></g></g><g fill="#ffffff" fill-opacity="1"><g transform="translate(231.871603, 88.310739)"><g><path d="M 5.484375 -22.828125 C 4.566406 -22.828125 3.816406 -23.109375 3.234375 -23.671875 C 2.648438 -24.234375 2.359375 -24.957031 2.359375 -25.84375 C 2.359375 -26.71875 2.648438 -27.4375 3.234375 -28 C 3.816406 -28.5625 4.566406 -28.84375 5.484375 -28.84375 C 6.109375 -28.84375 6.660156 -28.710938 7.140625 -28.453125 C 7.617188 -28.191406 7.988281 -27.835938 8.25 -27.390625 C 8.519531 -26.941406 8.65625 -26.425781 8.65625 -25.84375 C 8.65625 -25.257812 8.519531 -24.738281 8.25 -24.28125 C 7.988281 -23.832031 7.617188 -23.476562 7.140625 -23.21875 C 6.660156 -22.957031 6.109375 -22.828125 5.484375 -22.828125 Z M 2.9375 0 L 2.9375 -20.390625 L 8.0625 -20.390625 L 8.0625 0 Z M 2.9375 0 "/></g></g></g><g fill="#ffffff" fill-opacity="1"><g transform="translate(242.850285, 88.310739)"><g><path d="M 11.890625 0.390625 C 9.910156 0.390625 8.160156 -0.0195312 6.640625 -0.84375 C 5.128906 -1.664062 3.945312 -2.867188 3.09375 -4.453125 C 2.25 -6.046875 1.828125 -7.957031 1.828125 -10.1875 C 1.828125 -12.425781 2.25 -14.335938 3.09375 -15.921875 C 3.945312 -17.515625 5.125 -18.722656 6.625 -19.546875 C 8.132812 -20.367188 9.859375 -20.78125 11.796875 -20.78125 C 16.097656 -20.78125 18.851562 -19.21875 20.0625 -16.09375 L 16.546875 -13.59375 L 16.15625 -13.59375 C 15.738281 -14.550781 15.191406 -15.265625 14.515625 -15.734375 C 13.847656 -16.203125 12.941406 -16.4375 11.796875 -16.4375 C 10.316406 -16.4375 9.160156 -15.921875 8.328125 -14.890625 C 7.503906 -13.867188 7.09375 -12.300781 7.09375 -10.1875 C 7.09375 -8.09375 7.507812 -6.53125 8.34375 -5.5 C 9.1875 -4.46875 10.367188 -3.953125 11.890625 -3.953125 C 12.992188 -3.953125 13.929688 -4.25 14.703125 -4.84375 C 15.472656 -5.445312 16.023438 -6.3125 16.359375 -7.4375 L 16.75 -7.46875 L 20.390625 -5.46875 C 19.867188 -3.75 18.910156 -2.34375 17.515625 -1.25 C 16.117188 -0.15625 14.242188 0.390625 11.890625 0.390625 Z M 11.890625 0.390625 "/></g></g></g><g fill="#ffffff" fill-opacity="1"><g transform="translate(263.865049, 88.310739)"><g><path d="M 20.15625 -9.046875 L 7.046875 -9.046875 C 7.191406 -7.265625 7.695312 -5.96875 8.5625 -5.15625 C 9.425781 -4.351562 10.601562 -3.953125 12.09375 -3.953125 C 13.257812 -3.953125 14.207031 -4.171875 14.9375 -4.609375 C 15.664062 -5.046875 16.25 -5.707031 16.6875 -6.59375 L 17.078125 -6.59375 L 20.484375 -4.421875 C 19.816406 -2.992188 18.8125 -1.832031 17.46875 -0.9375 C 16.125 -0.0507812 14.332031 0.390625 12.09375 0.390625 C 9.976562 0.390625 8.15625 -0.0078125 6.625 -0.8125 C 5.09375 -1.613281 3.910156 -2.804688 3.078125 -4.390625 C 2.242188 -5.972656 1.828125 -7.90625 1.828125 -10.1875 C 1.828125 -12.5 2.265625 -14.453125 3.140625 -16.046875 C 4.015625 -17.640625 5.195312 -18.828125 6.6875 -19.609375 C 8.175781 -20.390625 9.851562 -20.78125 11.71875 -20.78125 C 14.601562 -20.78125 16.8125 -20.015625 18.34375 -18.484375 C 19.882812 -16.953125 20.65625 -14.707031 20.65625 -11.75 C 20.65625 -10.6875 20.613281 -9.859375 20.53125 -9.265625 Z M 15.75 -12.34375 C 15.695312 -13.894531 15.332031 -15.023438 14.65625 -15.734375 C 13.988281 -16.441406 13.007812 -16.796875 11.71875 -16.796875 C 9.132812 -16.796875 7.613281 -15.3125 7.15625 -12.34375 Z M 15.75 -12.34375 "/></g></g></g><g fill="#ffffff" fill-opacity="1"><g transform="translate(286.025736, 88.310739)"><g/></g></g><g fill="#ffffff" fill-opacity="1"><g transform="translate(294.95286, 88.310739)"><g><path d="M 20.96875 -16.859375 L 20.96875 -27.03125 L 26.28125 -27.03125 L 26.28125 0 L 20.96875 0 L 20.96875 -12.3125 L 8.859375 -12.3125 L 8.859375 0 L 3.515625 0 L 3.515625 -27.03125 L 8.859375 -27.03125 L 8.859375 -16.859375 Z M 20.96875 -16.859375 "/></g></g></g><g fill="#ffffff" fill-opacity="1"><g transform="translate(324.765357, 88.310739)"><g><path d="M 9.328125 0.390625 C 7.035156 0.390625 5.34375 -0.234375 4.25 -1.484375 C 3.164062 -2.734375 2.625 -4.53125 2.625 -6.875 L 2.625 -20.390625 L 7.75 -20.390625 L 7.75 -7.53125 C 7.75 -6.28125 8.015625 -5.367188 8.546875 -4.796875 C 9.085938 -4.222656 9.914062 -3.9375 11.03125 -3.9375 C 12.445312 -3.9375 13.550781 -4.398438 14.34375 -5.328125 C 15.132812 -6.265625 15.53125 -7.726562 15.53125 -9.71875 L 15.53125 -20.390625 L 20.65625 -20.390625 L 20.65625 0 L 15.734375 0 L 15.734375 -3 L 15.34375 -3.09375 C 14.6875 -1.914062 13.882812 -1.039062 12.9375 -0.46875 C 12 0.101562 10.796875 0.390625 9.328125 0.390625 Z M 9.328125 0.390625 "/></g></g></g><g fill="#ffffff" fill-opacity="1"><g transform="translate(348.349193, 88.310739)"><g><path d="M 14.25 0.390625 C 11.65625 0.390625 9.722656 -0.582031 8.453125 -2.53125 L 8.0625 -2.453125 L 8.0625 0 L 2.9375 0 L 2.9375 -28.578125 L 8.0625 -28.578125 L 8.0625 -17.984375 L 8.453125 -17.90625 C 9.148438 -18.882812 9.972656 -19.609375 10.921875 -20.078125 C 11.878906 -20.546875 13.023438 -20.78125 14.359375 -20.78125 C 16.015625 -20.78125 17.457031 -20.390625 18.6875 -19.609375 C 19.914062 -18.835938 20.875 -17.660156 21.5625 -16.078125 C 22.257812 -14.492188 22.609375 -12.53125 22.609375 -10.1875 C 22.609375 -7.863281 22.25 -5.910156 21.53125 -4.328125 C 20.820312 -2.742188 19.835938 -1.5625 18.578125 -0.78125 C 17.316406 0 15.875 0.390625 14.25 0.390625 Z M 12.703125 -3.953125 C 14.203125 -3.953125 15.347656 -4.453125 16.140625 -5.453125 C 16.929688 -6.460938 17.328125 -8.039062 17.328125 -10.1875 C 17.328125 -12.34375 16.929688 -13.921875 16.140625 -14.921875 C 15.347656 -15.929688 14.203125 -16.4375 12.703125 -16.4375 C 11.253906 -16.4375 10.109375 -15.914062 9.265625 -14.875 C 8.421875 -13.84375 8 -12.28125 8 -10.1875 C 8 -8.09375 8.421875 -6.53125 9.265625 -5.5 C 10.109375 -4.46875 11.253906 -3.953125 12.703125 -3.953125 Z M 12.703125 -3.953125 "/></g></g></g><g clip-path="url(#68634872b4)"><g clip-path="url(#1e7900e946)"><g clip-path="url(#157d1805bd)"><g clip-path="url(#1d8b4f4fdd)"><g clip-path="url(#79e3c76413)"><path fill="#ffffff" d="M 11.125 91.253906 C 9.835938 90.671875 9.394531 88.96875 9.765625 87.605469 C 10.136719 86.242188 11.109375 85.140625 12.03125 84.074219 C 17.574219 77.671875 22.429688 70.6875 26.5 63.265625 C 27.164062 62.054688 27.839844 60.792969 28.941406 59.960938 C 30.039062 59.125 31.699219 58.851562 32.773438 59.722656 C 33.625 60.414062 33.882812 61.648438 33.683594 62.730469 C 33.484375 63.816406 32.90625 64.785156 32.335938 65.722656 C 27.394531 73.789062 21.90625 81.519531 15.96875 88.878906 C 14.746094 90.390625 12.894531 92.050781 11.125 91.253906 Z M 19.523438 70.871094 C 19.605469 72.167969 18.789062 73.328125 18.011719 74.367188 C 16.53125 76.355469 15.046875 78.34375 13.5625 80.332031 C 12.539062 81.707031 11.03125 83.246094 9.402344 82.714844 C 8.21875 82.324219 7.625 80.910156 7.765625 79.671875 C 7.910156 78.429688 8.605469 77.335938 9.300781 76.296875 C 10.550781 74.425781 11.855469 72.585938 13.203125 70.777344 C 13.996094 69.714844 14.925781 68.582031 16.234375 68.328125 C 17.773438 68.03125 19.425781 69.304688 19.523438 70.871094 Z M 27.960938 93.78125 C 26.988281 92.167969 28.152344 90.148438 29.277344 88.636719 C 34.289062 81.902344 39.296875 75.164062 44.308594 68.429688 C 45.453125 66.894531 46.898438 65.203125 48.8125 65.25 C 50.671875 65.292969 52.167969 67.398438 51.601562 69.167969 C 51.34375 69.972656 50.769531 70.625 50.210938 71.257812 C 44.824219 77.375 39.933594 83.925781 35.597656 90.828125 C 34.71875 92.226562 33.804688 93.695312 32.371094 94.511719 C 30.9375 95.328125 28.8125 95.191406 27.960938 93.78125 Z M 31.355469 77.65625 C 30.210938 76.984375 29.855469 75.421875 30.179688 74.136719 C 30.507812 72.847656 31.359375 71.769531 32.191406 70.734375 C 34.617188 67.710938 37.042969 64.691406 39.46875 61.667969 C 40.691406 60.144531 42.25 58.46875 44.191406 58.640625 C 46 58.800781 47.347656 60.910156 46.738281 62.617188 C 46.40625 63.535156 45.65625 64.226562 44.953125 64.902344 C 41.996094 67.730469 39.367188 70.902344 37.136719 74.335938 C 36.464844 75.375 35.804688 76.457031 34.820312 77.207031 C 33.835938 77.949219 32.421875 78.28125 31.355469 77.65625 Z M 53.175781 80.21875 C 51.503906 80.726562 49.550781 79.238281 49.601562 77.492188 C 49.632812 76.386719 50.308594 75.417969 50.953125 74.523438 C 54.128906 70.144531 57.304688 65.765625 60.476562 61.386719 C 61.242188 60.332031 62.113281 59.203125 63.382812 58.890625 C 64.808594 58.542969 66.425781 59.535156 66.753906 60.96875 C 67.117188 62.535156 66.105469 64.058594 65.140625 65.347656 C 62.019531 69.542969 58.894531 73.742188 55.769531 77.941406 C 55.070312 78.878906 54.296875 79.875 53.175781 80.21875 Z M 53.175781 80.21875 " fill-opacity="1" fill-rule="nonzero"/></g></g></g></g></g></svg>