<svg xmlns="http://www.w3.org/2000/svg" xmlns:xlink="http://www.w3.org/1999/xlink" width="500" zoomAndPan="magnify" viewBox="0 0 375 149.999998" height="200" preserveAspectRatio="xMidYMid meet" version="1.0"><defs><g/><clipPath id="2b4a41e051"><path d="M 7.902344 58.085938 L 68.222656 58.085938 L 68.222656 95.316406 L 7.902344 95.316406 Z M 7.902344 58.085938 " clip-rule="nonzero"/></clipPath><clipPath id="5bdffb69de"><path d="M 64.945312 49.207031 L 74.496094 83.144531 L 13.078125 100.429688 L 3.527344 66.492188 Z M 64.945312 49.207031 " clip-rule="nonzero"/></clipPath><clipPath id="da4ba5eea5"><path d="M 64.945312 49.207031 L 74.496094 83.144531 L 13.078125 100.429688 L 3.527344 66.492188 Z M 64.945312 49.207031 " clip-rule="nonzero"/></clipPath><clipPath id="f8e65d231a"><path d="M 64.945312 49.207031 L 74.496094 83.144531 L 13.078125 100.429688 L 3.527344 66.492188 Z M 64.945312 49.207031 " clip-rule="nonzero"/></clipPath><clipPath id="b84bb907a8"><path d="M 64.941406 49.207031 L 74.5 83.171875 L 13.078125 100.457031 L 3.519531 66.496094 Z M 64.941406 49.207031 " clip-rule="nonzero"/></clipPath><clipPath id="cfbe392558"><path d="M 64.945312 49.222656 L 74.492188 83.132812 L 13.074219 100.417969 L 3.527344 66.507812 Z M 64.945312 49.222656 " clip-rule="nonzero"/></clipPath></defs><g fill="#000000" fill-opacity="1"><g transform="translate(72.223249, 88.175358)"><g><path d="M 21.4375 -26.75 L 21.4375 -22.296875 L 13.71875 -22.296875 L 13.71875 0 L 8.453125 0 L 8.453125 -22.296875 L 0.734375 -22.296875 L 0.734375 -26.75 Z M 21.4375 -26.75 "/></g></g></g><g fill="#000000" fill-opacity="1"><g transform="translate(94.396379, 88.175358)"><g><path d="M 2.90625 0 L 2.90625 -28.28125 L 7.984375 -28.28125 L 7.984375 -17.546875 L 8.359375 -17.46875 C 9.035156 -18.457031 9.859375 -19.21875 10.828125 -19.75 C 11.804688 -20.289062 12.984375 -20.5625 14.359375 -20.5625 C 18.816406 -20.5625 21.046875 -18.035156 21.046875 -12.984375 L 21.046875 0 L 15.96875 0 L 15.96875 -12.34375 C 15.96875 -13.726562 15.691406 -14.726562 15.140625 -15.34375 C 14.597656 -15.96875 13.75 -16.28125 12.59375 -16.28125 C 11.175781 -16.28125 10.050781 -15.804688 9.21875 -14.859375 C 8.394531 -13.921875 7.984375 -12.453125 7.984375 -10.453125 L 7.984375 0 Z M 2.90625 0 "/></g></g></g><g fill="#000000" fill-opacity="1"><g transform="translate(118.033082, 88.175358)"><g><path d="M 19.9375 -8.953125 L 6.96875 -8.953125 C 7.113281 -7.191406 7.613281 -5.910156 8.46875 -5.109375 C 9.320312 -4.316406 10.488281 -3.921875 11.96875 -3.921875 C 13.125 -3.921875 14.0625 -4.132812 14.78125 -4.5625 C 15.5 -5 16.078125 -5.65625 16.515625 -6.53125 L 16.90625 -6.53125 L 20.265625 -4.375 C 19.609375 -2.957031 18.613281 -1.804688 17.28125 -0.921875 C 15.957031 -0.046875 14.1875 0.390625 11.96875 0.390625 C 9.882812 0.390625 8.082031 -0.00390625 6.5625 -0.796875 C 5.039062 -1.597656 3.867188 -2.78125 3.046875 -4.34375 C 2.222656 -5.914062 1.8125 -7.828125 1.8125 -10.078125 C 1.8125 -12.367188 2.242188 -14.300781 3.109375 -15.875 C 3.972656 -17.445312 5.144531 -18.617188 6.625 -19.390625 C 8.101562 -20.171875 9.757812 -20.5625 11.59375 -20.5625 C 14.445312 -20.5625 16.632812 -19.804688 18.15625 -18.296875 C 19.675781 -16.785156 20.4375 -14.566406 20.4375 -11.640625 C 20.4375 -10.578125 20.398438 -9.753906 20.328125 -9.171875 Z M 15.59375 -12.21875 C 15.539062 -13.757812 15.179688 -14.878906 14.515625 -15.578125 C 13.847656 -16.273438 12.875 -16.625 11.59375 -16.625 C 9.03125 -16.625 7.523438 -15.15625 7.078125 -12.21875 Z M 15.59375 -12.21875 "/></g></g></g><g fill="#000000" fill-opacity="1"><g transform="translate(139.968395, 88.175358)"><g/></g></g><g fill="#000000" fill-opacity="1"><g transform="translate(148.80473, 88.175358)"><g><path d="M 11.859375 0.390625 C 10.003906 0.390625 8.351562 0.160156 6.90625 -0.296875 C 5.457031 -0.753906 4.25 -1.351562 3.28125 -2.09375 C 2.320312 -2.84375 1.585938 -3.664062 1.078125 -4.5625 L 3.984375 -8.109375 L 4.453125 -8.109375 C 5.253906 -6.910156 6.273438 -5.957031 7.515625 -5.25 C 8.753906 -4.539062 10.203125 -4.1875 11.859375 -4.1875 C 13.273438 -4.1875 14.34375 -4.484375 15.0625 -5.078125 C 15.78125 -5.679688 16.140625 -6.507812 16.140625 -7.5625 C 16.140625 -8.1875 16.019531 -8.710938 15.78125 -9.140625 C 15.550781 -9.566406 15.164062 -9.929688 14.625 -10.234375 C 14.09375 -10.546875 13.367188 -10.8125 12.453125 -11.03125 L 9.015625 -11.8125 C 6.617188 -12.363281 4.832031 -13.273438 3.65625 -14.546875 C 2.476562 -15.828125 1.890625 -17.484375 1.890625 -19.515625 C 1.890625 -21.035156 2.265625 -22.367188 3.015625 -23.515625 C 3.773438 -24.660156 4.875 -25.546875 6.3125 -26.171875 C 7.757812 -26.804688 9.488281 -27.125 11.5 -27.125 C 13.5625 -27.125 15.328125 -26.851562 16.796875 -26.3125 C 18.273438 -25.769531 19.519531 -24.941406 20.53125 -23.828125 L 17.90625 -20.234375 L 17.453125 -20.234375 C 16.691406 -21.023438 15.820312 -21.617188 14.84375 -22.015625 C 13.875 -22.410156 12.757812 -22.609375 11.5 -22.609375 C 10.050781 -22.609375 8.945312 -22.351562 8.1875 -21.84375 C 7.4375 -21.332031 7.0625 -20.625 7.0625 -19.71875 C 7.0625 -18.875 7.328125 -18.203125 7.859375 -17.703125 C 8.390625 -17.203125 9.304688 -16.8125 10.609375 -16.53125 L 14.125 -15.8125 C 16.71875 -15.257812 18.597656 -14.328125 19.765625 -13.015625 C 20.941406 -11.703125 21.53125 -9.992188 21.53125 -7.890625 C 21.53125 -6.210938 21.171875 -4.753906 20.453125 -3.515625 C 19.734375 -2.285156 18.644531 -1.328125 17.1875 -0.640625 C 15.738281 0.046875 13.960938 0.390625 11.859375 0.390625 Z M 11.859375 0.390625 "/></g></g></g><g fill="#000000" fill-opacity="1"><g transform="translate(171.782825, 88.175358)"><g><path d="M 19.9375 -8.953125 L 6.96875 -8.953125 C 7.113281 -7.191406 7.613281 -5.910156 8.46875 -5.109375 C 9.320312 -4.316406 10.488281 -3.921875 11.96875 -3.921875 C 13.125 -3.921875 14.0625 -4.132812 14.78125 -4.5625 C 15.5 -5 16.078125 -5.65625 16.515625 -6.53125 L 16.90625 -6.53125 L 20.265625 -4.375 C 19.609375 -2.957031 18.613281 -1.804688 17.28125 -0.921875 C 15.957031 -0.046875 14.1875 0.390625 11.96875 0.390625 C 9.882812 0.390625 8.082031 -0.00390625 6.5625 -0.796875 C 5.039062 -1.597656 3.867188 -2.78125 3.046875 -4.34375 C 2.222656 -5.914062 1.8125 -7.828125 1.8125 -10.078125 C 1.8125 -12.367188 2.242188 -14.300781 3.109375 -15.875 C 3.972656 -17.445312 5.144531 -18.617188 6.625 -19.390625 C 8.101562 -20.171875 9.757812 -20.5625 11.59375 -20.5625 C 14.445312 -20.5625 16.632812 -19.804688 18.15625 -18.296875 C 19.675781 -16.785156 20.4375 -14.566406 20.4375 -11.640625 C 20.4375 -10.578125 20.398438 -9.753906 20.328125 -9.171875 Z M 15.59375 -12.21875 C 15.539062 -13.757812 15.179688 -14.878906 14.515625 -15.578125 C 13.847656 -16.273438 12.875 -16.625 11.59375 -16.625 C 9.03125 -16.625 7.523438 -15.15625 7.078125 -12.21875 Z M 15.59375 -12.21875 "/></g></g></g><g fill="#000000" fill-opacity="1"><g transform="translate(193.718137, 88.175358)"><g><path d="M 2.90625 0 L 2.90625 -20.1875 L 7.828125 -20.1875 L 7.828125 -17.171875 L 8.21875 -17.109375 C 8.707031 -18.234375 9.347656 -19.054688 10.140625 -19.578125 C 10.929688 -20.097656 11.894531 -20.359375 13.03125 -20.359375 C 14.175781 -20.359375 15.046875 -20.164062 15.640625 -19.78125 L 14.78125 -15.40625 L 14.390625 -15.328125 C 14.066406 -15.460938 13.75 -15.5625 13.4375 -15.625 C 13.132812 -15.6875 12.765625 -15.71875 12.328125 -15.71875 C 10.910156 -15.71875 9.832031 -15.21875 9.09375 -14.21875 C 8.351562 -13.226562 7.984375 -11.632812 7.984375 -9.4375 L 7.984375 0 Z M 2.90625 0 "/></g></g></g><g fill="#000000" fill-opacity="1"><g transform="translate(209.543033, 88.175358)"><g><path d="M 13.890625 0 L 7.84375 0 L 0.390625 -20.1875 L 5.6875 -20.1875 L 10.703125 -5.796875 L 11.125 -5.796875 L 16.15625 -20.1875 L 21.328125 -20.1875 Z M 13.890625 0 "/></g></g></g><g fill="#000000" fill-opacity="1"><g transform="translate(231.240502, 88.175358)"><g><path d="M 5.4375 -22.59375 C 4.519531 -22.59375 3.773438 -22.867188 3.203125 -23.421875 C 2.628906 -23.984375 2.34375 -24.703125 2.34375 -25.578125 C 2.34375 -26.441406 2.628906 -27.148438 3.203125 -27.703125 C 3.773438 -28.265625 4.519531 -28.546875 5.4375 -28.546875 C 6.039062 -28.546875 6.582031 -28.414062 7.0625 -28.15625 C 7.539062 -27.894531 7.910156 -27.539062 8.171875 -27.09375 C 8.429688 -26.65625 8.5625 -26.148438 8.5625 -25.578125 C 8.5625 -25.003906 8.429688 -24.488281 8.171875 -24.03125 C 7.910156 -23.582031 7.539062 -23.226562 7.0625 -22.96875 C 6.582031 -22.71875 6.039062 -22.59375 5.4375 -22.59375 Z M 2.90625 0 L 2.90625 -20.1875 L 7.984375 -20.1875 L 7.984375 0 Z M 2.90625 0 "/></g></g></g><g fill="#000000" fill-opacity="1"><g transform="translate(242.107531, 88.175358)"><g><path d="M 11.765625 0.390625 C 9.816406 0.390625 8.09375 -0.015625 6.59375 -0.828125 C 5.09375 -1.640625 3.921875 -2.832031 3.078125 -4.40625 C 2.234375 -5.976562 1.8125 -7.867188 1.8125 -10.078125 C 1.8125 -12.296875 2.234375 -14.191406 3.078125 -15.765625 C 3.921875 -17.335938 5.082031 -18.53125 6.5625 -19.34375 C 8.050781 -20.15625 9.753906 -20.5625 11.671875 -20.5625 C 15.929688 -20.5625 18.65625 -19.019531 19.84375 -15.9375 L 16.375 -13.453125 L 15.984375 -13.453125 C 15.578125 -14.398438 15.039062 -15.101562 14.375 -15.5625 C 13.707031 -16.03125 12.804688 -16.265625 11.671875 -16.265625 C 10.210938 -16.265625 9.070312 -15.757812 8.25 -14.75 C 7.4375 -13.738281 7.03125 -12.179688 7.03125 -10.078125 C 7.03125 -8.003906 7.441406 -6.457031 8.265625 -5.4375 C 9.097656 -4.425781 10.265625 -3.921875 11.765625 -3.921875 C 12.859375 -3.921875 13.785156 -4.210938 14.546875 -4.796875 C 15.316406 -5.390625 15.863281 -6.242188 16.1875 -7.359375 L 16.578125 -7.390625 L 20.1875 -5.421875 C 19.664062 -3.710938 18.710938 -2.316406 17.328125 -1.234375 C 15.953125 -0.148438 14.097656 0.390625 11.765625 0.390625 Z M 11.765625 0.390625 "/></g></g></g><g fill="#000000" fill-opacity="1"><g transform="translate(262.908574, 88.175358)"><g><path d="M 19.9375 -8.953125 L 6.96875 -8.953125 C 7.113281 -7.191406 7.613281 -5.910156 8.46875 -5.109375 C 9.320312 -4.316406 10.488281 -3.921875 11.96875 -3.921875 C 13.125 -3.921875 14.0625 -4.132812 14.78125 -4.5625 C 15.5 -5 16.078125 -5.65625 16.515625 -6.53125 L 16.90625 -6.53125 L 20.265625 -4.375 C 19.609375 -2.957031 18.613281 -1.804688 17.28125 -0.921875 C 15.957031 -0.046875 14.1875 0.390625 11.96875 0.390625 C 9.882812 0.390625 8.082031 -0.00390625 6.5625 -0.796875 C 5.039062 -1.597656 3.867188 -2.78125 3.046875 -4.34375 C 2.222656 -5.914062 1.8125 -7.828125 1.8125 -10.078125 C 1.8125 -12.367188 2.242188 -14.300781 3.109375 -15.875 C 3.972656 -17.445312 5.144531 -18.617188 6.625 -19.390625 C 8.101562 -20.171875 9.757812 -20.5625 11.59375 -20.5625 C 14.445312 -20.5625 16.632812 -19.804688 18.15625 -18.296875 C 19.675781 -16.785156 20.4375 -14.566406 20.4375 -11.640625 C 20.4375 -10.578125 20.398438 -9.753906 20.328125 -9.171875 Z M 15.59375 -12.21875 C 15.539062 -13.757812 15.179688 -14.878906 14.515625 -15.578125 C 13.847656 -16.273438 12.875 -16.625 11.59375 -16.625 C 9.03125 -16.625 7.523438 -15.15625 7.078125 -12.21875 Z M 15.59375 -12.21875 "/></g></g></g><g fill="#000000" fill-opacity="1"><g transform="translate(284.843887, 88.175358)"><g/></g></g><g fill="#000000" fill-opacity="1"><g transform="translate(293.680222, 88.175358)"><g><path d="M 20.75 -16.6875 L 20.75 -26.75 L 26.015625 -26.75 L 26.015625 0 L 20.75 0 L 20.75 -12.1875 L 8.765625 -12.1875 L 8.765625 0 L 3.46875 0 L 3.46875 -26.75 L 8.765625 -26.75 L 8.765625 -16.6875 Z M 20.75 -16.6875 "/></g></g></g><g fill="#000000" fill-opacity="1"><g transform="translate(323.189525, 88.175358)"><g><path d="M 9.234375 0.390625 C 6.972656 0.390625 5.300781 -0.226562 4.21875 -1.46875 C 3.132812 -2.707031 2.59375 -4.488281 2.59375 -6.8125 L 2.59375 -20.1875 L 7.671875 -20.1875 L 7.671875 -7.453125 C 7.671875 -6.210938 7.929688 -5.304688 8.453125 -4.734375 C 8.984375 -4.171875 9.804688 -3.890625 10.921875 -3.890625 C 12.328125 -3.890625 13.421875 -4.347656 14.203125 -5.265625 C 14.984375 -6.191406 15.375 -7.644531 15.375 -9.625 L 15.375 -20.1875 L 20.4375 -20.1875 L 20.4375 0 L 15.5625 0 L 15.5625 -2.96875 L 15.1875 -3.0625 C 14.539062 -1.894531 13.75 -1.023438 12.8125 -0.453125 C 11.882812 0.109375 10.691406 0.390625 9.234375 0.390625 Z M 9.234375 0.390625 "/></g></g></g><g fill="#000000" fill-opacity="1"><g transform="translate(346.533513, 88.175358)"><g><path d="M 14.109375 0.390625 C 11.535156 0.390625 9.617188 -0.570312 8.359375 -2.5 L 7.984375 -2.4375 L 7.984375 0 L 2.90625 0 L 2.90625 -28.28125 L 7.984375 -28.28125 L 7.984375 -17.796875 L 8.359375 -17.734375 C 9.054688 -18.691406 9.875 -19.398438 10.8125 -19.859375 C 11.757812 -20.328125 12.894531 -20.5625 14.21875 -20.5625 C 15.851562 -20.5625 17.28125 -20.175781 18.5 -19.40625 C 19.71875 -18.644531 20.664062 -17.476562 21.34375 -15.90625 C 22.03125 -14.34375 22.375 -12.398438 22.375 -10.078125 C 22.375 -7.785156 22.019531 -5.851562 21.3125 -4.28125 C 20.601562 -2.71875 19.625 -1.546875 18.375 -0.765625 C 17.132812 0.00390625 15.710938 0.390625 14.109375 0.390625 Z M 12.5625 -3.921875 C 14.050781 -3.921875 15.1875 -4.414062 15.96875 -5.40625 C 16.75 -6.394531 17.140625 -7.953125 17.140625 -10.078125 C 17.140625 -12.210938 16.75 -13.773438 15.96875 -14.765625 C 15.1875 -15.765625 14.050781 -16.265625 12.5625 -16.265625 C 11.132812 -16.265625 10.003906 -15.75 9.171875 -14.71875 C 8.335938 -13.695312 7.921875 -12.148438 7.921875 -10.078125 C 7.921875 -8.003906 8.335938 -6.457031 9.171875 -5.4375 C 10.003906 -4.425781 11.132812 -3.921875 12.5625 -3.921875 Z M 12.5625 -3.921875 "/></g></g></g><g clip-path="url(#2b4a41e051)"><g clip-path="url(#5bdffb69de)"><g clip-path="url(#da4ba5eea5)"><g clip-path="url(#f8e65d231a)"><g clip-path="url(#b84bb907a8)"><g clip-path="url(#cfbe392558)"><path fill="#000000" d="M 11.363281 91.382812 C 10.050781 90.789062 9.601562 89.054688 9.976562 87.667969 C 10.355469 86.277344 11.347656 85.152344 12.289062 84.066406 C 17.933594 77.542969 22.886719 70.417969 27.035156 62.855469 C 27.710938 61.621094 28.398438 60.335938 29.519531 59.488281 C 30.640625 58.636719 32.332031 58.359375 33.425781 59.242188 C 34.296875 59.949219 34.558594 61.210938 34.355469 62.3125 C 34.152344 63.414062 33.566406 64.40625 32.980469 65.363281 C 27.945312 73.582031 22.351562 81.460938 16.300781 88.964844 C 15.054688 90.507812 13.167969 92.199219 11.363281 91.382812 Z M 19.921875 70.609375 C 20.007812 71.929688 19.175781 73.113281 18.386719 74.171875 C 16.875 76.199219 15.363281 78.226562 13.847656 80.253906 C 12.804688 81.652344 11.269531 83.222656 9.609375 82.679688 C 8.402344 82.285156 7.796875 80.839844 7.941406 79.578125 C 8.085938 78.316406 8.796875 77.195312 9.503906 76.140625 C 10.78125 74.230469 12.105469 72.355469 13.480469 70.515625 C 14.292969 69.425781 15.238281 68.277344 16.570312 68.015625 C 18.140625 67.710938 19.824219 69.015625 19.921875 70.609375 Z M 28.523438 93.960938 C 27.535156 92.316406 28.71875 90.257812 29.867188 88.71875 C 34.972656 81.851562 40.078125 74.988281 45.1875 68.121094 C 46.351562 66.554688 47.824219 64.832031 49.773438 64.878906 C 51.667969 64.925781 53.195312 67.070312 52.617188 68.875 C 52.355469 69.691406 51.769531 70.355469 51.203125 71.003906 C 45.710938 77.238281 40.726562 83.917969 36.308594 90.953125 C 35.414062 92.375 34.480469 93.875 33.019531 94.707031 C 31.558594 95.535156 29.394531 95.402344 28.523438 93.960938 Z M 31.984375 77.523438 C 30.820312 76.839844 30.453125 75.25 30.785156 73.9375 C 31.117188 72.625 31.988281 71.527344 32.832031 70.46875 C 35.308594 67.390625 37.777344 64.308594 40.253906 61.226562 C 41.5 59.675781 43.085938 57.96875 45.066406 58.144531 C 46.910156 58.308594 48.285156 60.453125 47.660156 62.195312 C 47.324219 63.132812 46.558594 63.835938 45.839844 64.523438 C 42.828125 67.40625 40.148438 70.640625 37.875 74.140625 C 37.191406 75.199219 36.519531 76.304688 35.515625 77.066406 C 34.511719 77.824219 33.070312 78.164062 31.984375 77.523438 Z M 54.222656 80.136719 C 52.515625 80.65625 50.527344 79.136719 50.578125 77.355469 C 50.609375 76.230469 51.296875 75.242188 51.960938 74.332031 C 55.195312 69.867188 58.429688 65.40625 61.664062 60.941406 C 62.445312 59.867188 63.332031 58.714844 64.625 58.398438 C 66.078125 58.042969 67.726562 59.054688 68.0625 60.515625 C 68.433594 62.113281 67.398438 63.664062 66.417969 64.980469 C 63.238281 69.257812 60.050781 73.535156 56.867188 77.8125 C 56.15625 78.773438 55.363281 79.789062 54.222656 80.136719 Z M 54.222656 80.136719 " fill-opacity="1" fill-rule="nonzero"/></g></g></g></g></g></g></svg>